<svg id="Layer_1" data-name="Layer 1" xmlns="http://www.w3.org/2000/svg" viewBox="0 0 25 25"><defs><style>.cls-1{fill:#1a1919;fill-rule:evenodd;}</style></defs><g id="_1broadway" data-name="1broadway"><g id="home-1---desktop"><path id="Combined-Shape" class="cls-1" d="M10.67.42V12h2.18c1.72-.1,3.48-.77,3.48-5.69,0-3.95-.59-5-4-5.14l-.44,0h0V.42h1.41l.67,0c5.1.11,9.4.89,9.4,6.06s-6.8,5.71-7.49,5.71c2.24,0,9.11.37,9.11,6.25,0,5.61-5.46,6.11-11.07,6.12h-.8v-.69l.49,0c2.25-.14,4-1,3.92-5.53,0-5.16-2.51-5.6-4.68-5.67l-2.18,0V23.36a.56.56,0,0,0,.45.52h.76v.69H2v-.69h.93c.39,0,.68-.14.69-.53h0V3.54A9.46,9.46,0,0,1,.41,5.31h0L0,4.85C2.64,3.71,4.39,2.29,5,.42h5.64Z"/></g></g></svg>