<svg id="Layer_1" data-name="Layer 1" xmlns="http://www.w3.org/2000/svg" viewBox="0 0 25 25"><defs><style>.cls-1{fill:#595a5c;fill-rule:evenodd;}</style></defs><path class="cls-1" d="M5.73,0a3.65,3.65,0,1,0,0,7.29.89.89,0,0,1,.58.4l5.9,8.86a1.69,1.69,0,0,1,.29.95v4.9a.53.53,0,0,1-.15.36.52.52,0,0,1-.37.16H8.33a1,1,0,1,0,0,2.08H18.75a1,1,0,0,0,0-2.08H15.1a.53.53,0,0,1-.52-.52V17.5a1.69,1.69,0,0,1,.29-.95L22.74,4.74a1,1,0,0,0-.87-1.61h-12a.7.7,0,0,1-.63-.51A3.65,3.65,0,0,0,5.73,0Zm0,2.08A1.57,1.57,0,1,1,4.17,3.65,1.55,1.55,0,0,1,5.73,2.08ZM19.41,5.21H9.21a.37.37,0,0,0-.3.18,3.66,3.66,0,0,1-.75,1,.24.24,0,0,0-.05.31L10.34,10a1,1,0,0,0,.81.44h4.79a1,1,0,0,0,.81-.44l2.89-4.34a.26.26,0,0,0,0-.28A.26.26,0,0,0,19.41,5.21Z"/></svg>