<svg id="Layer_1" data-name="Layer 1" xmlns="http://www.w3.org/2000/svg" viewBox="0 0 25 25"><defs><style>.cls-1{fill:#595a5c;fill-rule:evenodd;}</style></defs><path class="cls-1" d="M11.92,3.87a1.18,1.18,0,0,1-2.35,0V1.17a1.18,1.18,0,0,1,2.35,0ZM16.09,6a1.17,1.17,0,1,1-2.34,0V3.34a1.17,1.17,0,1,1,2.34,0Zm3.38,5.25.76-.08a2.67,2.67,0,0,1,2.92,3.06,6.08,6.08,0,0,1-5,5.44,7.76,7.76,0,0,1-1.84,2.94h2.18a1.18,1.18,0,1,1,0,2.35H3.93a1.18,1.18,0,0,1,0-2.35H5.17A7.8,7.8,0,0,1,3,18.25L1.83,10a1.23,1.23,0,0,1,.28-.94A1.18,1.18,0,0,1,3,8.65h15.5a1.2,1.2,0,0,1,.89.4,1.23,1.23,0,0,1,.28.94ZM4.34,11l1,6.92a5.49,5.49,0,0,0,10.87,0l1-6.92Zm14.32,6.11.48-3.42,1.34-.14a.3.3,0,0,1,.26.09.32.32,0,0,1,.09.27A3.87,3.87,0,0,1,18.66,17.11ZM6.56,7.21A1.18,1.18,0,0,0,7.74,6V3.34a1.18,1.18,0,1,0-2.35,0V6A1.18,1.18,0,0,0,6.56,7.21Z"/></svg>