<svg id="Layer_1" data-name="Layer 1" xmlns="http://www.w3.org/2000/svg" viewBox="0 0 25 25"><defs><style>.cls-1{fill:#595a5c;}</style></defs><path class="cls-1" d="M16,2a1.75,1.75,0,1,1-1.76,1.74A1.73,1.73,0,0,1,16,2Z"/><path class="cls-1" d="M12.9,4.84a1.77,1.77,0,0,1,1.49.87L16,9h2.63a.88.88,0,0,1,0,1.75H15.49c-.59,0-1.06-1.26-2.08-2.82l-2.68,2.82c1,.77,2.65,1.36,2.65,2.08v4.92a.88.88,0,1,1-1.75,0v-3.6c0-.72-.88-.88-3.37-2.31a1.63,1.63,0,0,1-1-1.48,1.78,1.78,0,0,1,.51-1.23l3.92-3.78A1.82,1.82,0,0,1,12.9,4.84Z"/><path class="cls-1" d="M5.35,12.79a5.11,5.11,0,1,0,5.1,5.11A5.12,5.12,0,0,0,5.35,12.79Zm2.52,7.62a3.55,3.55,0,0,1-5,0,3.54,3.54,0,0,1,0-5,3.56,3.56,0,0,1,2.52-1.06,3.56,3.56,0,0,1,2.52,6.09Z"/><path class="cls-1" d="M19.65,12.79a5.1,5.1,0,1,0,5.1,5.1A5.11,5.11,0,0,0,19.65,12.79Zm2.52,7.62a3.55,3.55,0,1,1,1-2.52A3.52,3.52,0,0,1,22.17,20.41Z"/></svg>