<svg id="Layer_1" data-name="Layer 1" xmlns="http://www.w3.org/2000/svg" viewBox="0 0 25 25"><defs><style>.cls-1{fill:#595a5c;stroke:#595a5c;stroke-width:0.34px;}</style></defs><g id="_1broadway" data-name="1broadway"><g id="home-2---desktop"><g id="Group-22"><path id="Combined-Shape" class="cls-1" d="M3.85,18h.09a.72.72,0,0,1,.45.26,3.14,3.14,0,0,0,2.35,1.26,3.18,3.18,0,0,0,2.34-1.26.7.7,0,0,1,1.08,0,3.12,3.12,0,0,0,2.34,1.26,3.18,3.18,0,0,0,2.34-1.26.7.7,0,0,1,1.08,0,3.14,3.14,0,0,0,2.34,1.26,3.18,3.18,0,0,0,2.35-1.26.7.7,0,0,1,1.08,0A3.12,3.12,0,0,0,24,19.49a.7.7,0,0,1,.72.72.72.72,0,0,1-.72.72,4.24,4.24,0,0,1-2.88-1.19,4.09,4.09,0,0,1-5.77,0,4.24,4.24,0,0,1-2.88,1.19,4.24,4.24,0,0,1-2.88-1.19,4.26,4.26,0,0,1-2.88,1.19,4.27,4.27,0,0,1-2.89-1.19A4.24,4.24,0,0,1,1,20.93a.7.7,0,0,1-.72-.72A.72.72,0,0,1,1,19.49a3.22,3.22,0,0,0,2.34-1.26A.72.72,0,0,1,3.85,18ZM14.92,4.07a.69.69,0,0,1,.69.54h0l.47,2h1.1a.72.72,0,0,1,.7.59h0l.77,4.71,1.39.46a.72.72,0,0,1,.46.88h0L19,18.2a1.52,1.52,0,0,1-.67.18,1.37,1.37,0,0,1-.8-.26h0l1.41-4.63-5.66-1.85v6.51a1.42,1.42,0,0,1-.72.2,1.37,1.37,0,0,1-.72-.2h0V11.61L6.14,13.47,7.56,18.1a1.51,1.51,0,0,1-.8.25,1.46,1.46,0,0,1-.67-.18h0L4.57,13.23A.73.73,0,0,1,5,12.36H5l1.39-.46L7.2,7.19a.69.69,0,0,1,.69-.6H9l.47-2a.71.71,0,0,1,.69-.54h4.79ZM16.57,8H8.49l-.57,3.37L12.29,10a.56.56,0,0,1,.44,0h0l4.38,1.41ZM14.35,5.49H10.7l-.26,1.1h4.17Z"/></g></g></g></svg>