<svg id="Layer_1" data-name="Layer 1" xmlns="http://www.w3.org/2000/svg" viewBox="0 0 25 25"><defs><style>.cls-1{fill:#595a5c;fill-rule:evenodd;}</style></defs><path class="cls-1" d="M20.31,0a4.49,4.49,0,0,1,3.31,1.38A4.49,4.49,0,0,1,25,4.69V20.31A4.71,4.71,0,0,1,20.31,25H4.69a4.49,4.49,0,0,1-3.31-1.38A4.49,4.49,0,0,1,0,20.31V4.69A4.49,4.49,0,0,1,1.38,1.38,4.49,4.49,0,0,1,4.69,0Zm.21,20.52a1,1,0,0,0,.31-.73V5.21a1.06,1.06,0,0,0-1-1H17.71a1.06,1.06,0,0,0-1,1v5.21H8.33V5.21a1.06,1.06,0,0,0-1-1H5.21a1.06,1.06,0,0,0-1,1V19.79a1.06,1.06,0,0,0,1,1H7.29a1.06,1.06,0,0,0,1-1V14.58h8.34v5.21a1.06,1.06,0,0,0,1,1h2.08A1,1,0,0,0,20.52,20.52Z"/></svg>