<svg id="Layer_1" data-name="Layer 1" xmlns="http://www.w3.org/2000/svg" viewBox="0 0 25 25"><defs><style>.cls-1,.cls-2{fill:#595a5c;}.cls-1{fill-rule:evenodd;}</style></defs><path class="cls-1" d="M.21,12.5A12.29,12.29,0,1,1,12.5,24.79,12.3,12.3,0,0,1,.21,12.5Zm1.38,0A10.91,10.91,0,1,0,12.5,1.59,10.92,10.92,0,0,0,1.59,12.5Zm8.67-5.59a.69.69,0,0,1,1.38,0v4.58a2.24,2.24,0,0,1-2.25,2.24H9.17v5.81a.69.69,0,0,1-1.38,0V13.73H7.56a2.24,2.24,0,0,1-2.24-2.24V6.91A.68.68,0,0,1,6,6.22a.69.69,0,0,1,.69.69v4.58a.87.87,0,0,0,.87.87H9.39a.87.87,0,0,0,.87-.87Zm6.41-.69A3.93,3.93,0,0,0,13,10.37a4.06,4.06,0,0,0,3,4.07v5.1a.69.69,0,0,0,1.38,0v-5.1a4.06,4.06,0,0,0,3-4.07A3.93,3.93,0,0,0,16.67,6.22Zm0,6.92a2.57,2.57,0,0,1-2.28-2.77A2.56,2.56,0,0,1,16.67,7.6a2.56,2.56,0,0,1,2.27,2.77A2.57,2.57,0,0,1,16.67,13.14Zm-7.5-2.61a.69.69,0,0,1-1.38,0V6.91a.69.69,0,0,1,1.38,0Z"/><path class="cls-2" d="M11.64,6.91h0ZM9.17,13.73v-.21H9v.21Zm-1.38,0H8v-.21H7.79Zm8.19.71h.21v-.17l-.17,0Zm1.38,0-.05-.21-.16,0v.17ZM12.5,0A12.52,12.52,0,0,0,0,12.5H.42A12.09,12.09,0,0,1,12.5.42ZM25,12.5A12.52,12.52,0,0,0,12.5,0V.42A12.09,12.09,0,0,1,24.58,12.5ZM12.5,25A12.52,12.52,0,0,0,25,12.5h-.42A12.09,12.09,0,0,1,12.5,24.58ZM0,12.5A12.52,12.52,0,0,0,12.5,25v-.42A12.09,12.09,0,0,1,.42,12.5ZM12.5,23.2A10.71,10.71,0,0,1,1.8,12.5H1.38A11.13,11.13,0,0,0,12.5,23.62ZM23.2,12.5A10.71,10.71,0,0,1,12.5,23.2v.42A11.13,11.13,0,0,0,23.62,12.5ZM12.5,1.8A10.71,10.71,0,0,1,23.2,12.5h.42A11.13,11.13,0,0,0,12.5,1.38ZM1.8,12.5A10.71,10.71,0,0,1,12.5,1.8V1.38A11.13,11.13,0,0,0,1.38,12.5ZM11,6a.9.9,0,0,0-.9.9h.43A.47.47,0,0,1,11,6.43Zm.9.9A.9.9,0,0,0,11,6v.42a.47.47,0,0,1,.48.48Zm0,4.58V6.91h-.42v4.58ZM9.39,14a2.46,2.46,0,0,0,2.46-2.46h-.42a2,2,0,0,1-2,2Zm-.22,0h.22v-.43H9.17Zm.21,5.59V13.73H9v5.81Zm-.9.9a.9.9,0,0,0,.9-.9H9a.47.47,0,0,1-.47.48Zm-.9-.9a.9.9,0,0,0,.9.9V20A.47.47,0,0,1,8,19.54Zm0-5.81v5.81H8V13.73Zm0,.22h.23v-.43H7.56ZM5.1,11.49A2.47,2.47,0,0,0,7.56,14v-.43a2,2,0,0,1-2-2Zm0-4.58v4.58h.43V6.91ZM6,6a.9.9,0,0,0-.9.9h.43A.47.47,0,0,1,6,6.43Zm.9.9A.9.9,0,0,0,6,6v.42a.47.47,0,0,1,.48.48Zm0,4.58V6.91H6.48v4.58Zm.66.66a.67.67,0,0,1-.66-.66H6.48a1.09,1.09,0,0,0,1.08,1.08Zm1.83,0H7.56v.42H9.39Zm.66-.66a.66.66,0,0,1-.66.66v.42a1.09,1.09,0,0,0,1.09-1.08Zm0-4.58v4.58h.43V6.91Zm3.18,3.46a3.71,3.71,0,0,1,3.44-3.94V6a4.14,4.14,0,0,0-3.87,4.36ZM16,14.23a3.84,3.84,0,0,1-2.79-3.86H12.8a4.26,4.26,0,0,0,3.13,4.27Zm.17,5.31v-5.1h-.42v5.1Zm.48.48a.48.48,0,0,1-.48-.48h-.42a.9.9,0,0,0,.9.9Zm.48-.48a.48.48,0,0,1-.48.48v.42a.9.9,0,0,0,.9-.9Zm0-5.1v5.1h.42v-5.1Zm3-4.07a3.83,3.83,0,0,1-2.8,3.86l.09.41a4.25,4.25,0,0,0,3.13-4.27ZM16.67,6.43a3.72,3.72,0,0,1,3.44,3.94h.42A4.14,4.14,0,0,0,16.67,6Zm-2.49,3.94a2.77,2.77,0,0,0,2.49,3v-.43a2.35,2.35,0,0,1-2.07-2.55Zm2.49-3a2.78,2.78,0,0,0-2.49,3h.42a2.35,2.35,0,0,1,2.07-2.56Zm2.49,3a2.78,2.78,0,0,0-2.49-3v.43a2.35,2.35,0,0,1,2.06,2.56Zm-2.49,3a2.77,2.77,0,0,0,2.49-3h-.43a2.34,2.34,0,0,1-2.06,2.55ZM8.48,11.43a.9.9,0,0,0,.9-.9H9a.49.49,0,0,1-.48.48Zm-.9-.9a.9.9,0,0,0,.9.9V11A.48.48,0,0,1,8,10.53Zm0-3.62v3.62H8V6.91Zm.9-.9a.9.9,0,0,0-.9.9H8a.47.47,0,0,1,.48-.48Zm.9.9a.9.9,0,0,0-.9-.9v.42A.48.48,0,0,1,9,6.91Zm0,3.62V6.91H9v3.62Z"/></svg>