<svg id="Layer_1" data-name="Layer 1" xmlns="http://www.w3.org/2000/svg" viewBox="0 0 25 25"><defs><style>.cls-1,.cls-2{fill:#595a5c;}.cls-1{fill-rule:evenodd;}</style></defs><path class="cls-1" d="M12.5.25A4.91,4.91,0,0,0,7.73,4.06H4.6a1.91,1.91,0,0,0-1.33.58A2.46,2.46,0,0,0,2.71,5.8a.07.07,0,0,1,0,0L1.62,23.25a.41.41,0,0,0,0,.11A1.4,1.4,0,0,0,3,24.75H22a1.4,1.4,0,0,0,1.39-1.39.41.41,0,0,0,0-.11L22.3,5.85a.07.07,0,0,1,0,0,2.46,2.46,0,0,0-.56-1.16,1.91,1.91,0,0,0-1.33-.58H17.27A4.91,4.91,0,0,0,12.5.25Zm0,1.63a3.23,3.23,0,0,1,3.08,2.18H9.42A3.23,3.23,0,0,1,12.5,1.88ZM7.6,5.69h-3c-.07,0-.07,0-.12,0h0a.93.93,0,0,0-.16.37h0l-1,17H21.72l-1-17h0a.93.93,0,0,0-.16-.37h0c-.05,0-.05,0-.12,0h-3V9.12a.81.81,0,0,1-.4.72.82.82,0,0,1-.83,0,.81.81,0,0,1-.4-.72V5.69H9.23V9.12a.81.81,0,0,1-.4.72.82.82,0,0,1-.83,0,.81.81,0,0,1-.4-.72Z"/><path class="cls-2" d="M7.73,4.06V4.3h.19l0-.19Zm-5,1.74.24,0H3Zm0,0-.24,0H2.7ZM1.62,23.25l.24,0H1.62Zm0,.11h0Zm21.78,0h0Zm0-.11h-.24ZM22.3,5.85h.24Zm0,0-.24,0h0Zm-5-1.74L17,4.11l0,.19h.19Zm-1.69,0V4.3h.35L15.81,4Zm-6.16,0L9.19,4l-.12.32h.35ZM7.6,5.69h.24V5.45H7.6Zm-3.12,0,.18.17h0Zm0,0,.19.17h0Zm-.16.37.24,0h0Zm0,0-.24,0h0Zm0,0-.24,0h0v0Zm-1,17H3l0,.26h.26Zm18.44,0v.25H22l0-.26Zm-1-17h0Zm0,0h.24v0Zm-.16-.37.18-.16h0Zm0,0-.18.17h0Zm-3.12,0V5.45h-.24v.24Zm0,3.43h0Zm-.4.72-.13-.21Zm-.83,0,.13-.21Zm-.4-.72h0Zm0-3.43H16V5.45h-.24Zm-6.54,0V5.45H9v.24Zm0,3.43h0Zm-.4.72L8.7,9.63h0ZM8,9.84l.13-.21h0Zm-.4-.72h0Zm.36-5A4.67,4.67,0,0,1,12.5.49V0a5.16,5.16,0,0,0-5,4ZM4.6,4.3H7.73V3.81H4.6Zm-1.14.51A1.58,1.58,0,0,1,4.6,4.3V3.81a2.09,2.09,0,0,0-1.51.67ZM3,5.85a2.12,2.12,0,0,1,.51-1l-.37-.33a2.61,2.61,0,0,0-.62,1.27Zm0,0v0l-.48-.1s0,0,0,.07ZM1.86,23.26,3,5.87l-.49,0L1.37,23.23Zm0,.1a.25.25,0,0,1,0-.08l-.49-.07c0,.05,0,.1,0,.15ZM3,24.51a1.16,1.16,0,0,1-1.15-1.15H1.36A1.65,1.65,0,0,0,3,25Zm19,0H3V25H22Zm1.15-1.15A1.16,1.16,0,0,1,22,24.51V25a1.65,1.65,0,0,0,1.64-1.64Zm0-.08a.25.25,0,0,1,0,.08h.49c0-.05,0-.1,0-.15ZM22.05,5.87l1.09,17.39.49,0L22.54,5.84Zm0,0v0l.49-.07s0,0,0-.07Zm-.51-1a2.12,2.12,0,0,1,.51,1l.48-.1a2.61,2.61,0,0,0-.62-1.27ZM20.4,4.3a1.58,1.58,0,0,1,1.14.51l.37-.33a2.09,2.09,0,0,0-1.51-.67Zm-3.13,0H20.4V3.81H17.27ZM12.5.49A4.67,4.67,0,0,1,17,4.11L17.51,4a5.16,5.16,0,0,0-5-4ZM15.81,4A3.48,3.48,0,0,0,12.5,1.63v.49a3,3,0,0,1,2.85,2ZM9.42,4.3h6.16V3.81H9.42ZM12.5,1.63A3.48,3.48,0,0,0,9.19,4l.46.16a3,3,0,0,1,2.85-2ZM4.6,5.94h3V5.45h-3Zm.06,0,0,0h0l0,0,0,0h0V5.45a.4.4,0,0,0-.17,0,.56.56,0,0,0-.13.11Zm0,0h0L4.3,5.58h0Zm-.11.25A1.89,1.89,0,0,1,4.61,6l0,0v0h0l-.37-.33a1.2,1.2,0,0,0-.22.48Zm0-.08v0a.13.13,0,0,1,0,.06l-.48-.1a.19.19,0,0,0,0,.08Zm0,.08a.37.37,0,0,0,0-.08l-.49.06V6.08Zm-1,17,1-17-.49,0-1,17Zm18.19-.26H3.28v.49H21.72ZM20.44,6.14l1,17,.49,0-1-17Zm0,0h0Zm-.1-.2h0v0l0,0a1.89,1.89,0,0,1,.06.18l.48-.1a1.2,1.2,0,0,0-.22-.48Zm0,0h0l.37-.33h0Zm.06,0h0l-.05,0-.05,0h0l0,0,.36-.33a.56.56,0,0,0-.13-.11.4.4,0,0,0-.17,0Zm-3,0h3V5.45h-3Zm.25,3.18V5.69h-.49V9.12Zm-.53.93a1.07,1.07,0,0,0,.53-.93h-.49a.59.59,0,0,1-.29.5Zm-1.07,0a1,1,0,0,0,1.07,0l-.25-.42a.58.58,0,0,1-.57,0Zm-.53-.93a1.07,1.07,0,0,0,.53.93l.25-.42a.59.59,0,0,1-.29-.5Zm0-3.43V9.12H16V5.69Zm-6.29.25h6.54V5.45H9.23Zm.25,3.18V5.69H9V9.12ZM9,10.05a1.07,1.07,0,0,0,.53-.93H9a.59.59,0,0,1-.29.5Zm-1.07,0a1,1,0,0,0,1.07,0L8.7,9.63a.58.58,0,0,1-.57,0Zm-.53-.93a1.07,1.07,0,0,0,.53.93l.25-.42a.59.59,0,0,1-.29-.5Zm0-3.43V9.12h.49V5.69Z"/></svg>