<svg id="Layer_1" data-name="Layer 1" xmlns="http://www.w3.org/2000/svg" viewBox="0 0 25 25"><defs><style>.cls-1{fill:#ffd912;}</style></defs><path class="cls-1" d="M12.5,0A12.5,12.5,0,1,1,0,12.5,12.5,12.5,0,0,1,12.5,0"/><path d="M12.63,15.53l1.2,1.09a2,2,0,0,1-1.12.18c-2.51,0-3.46-2.14-3.46-4.26s.95-4.36,3.46-4.36,3.45,2.14,3.45,4.36a4.87,4.87,0,0,1-.79,2.92l-1.43-1.32Zm6.25,3.13L17.3,17.22A7,7,0,0,0,19,12.54c0-3.77-2.31-6.71-6.24-6.71S6.46,8.77,6.46,12.54s2.31,6.6,6.25,6.6a6.12,6.12,0,0,0,3.07-.74L17.59,20Z"/></svg>