<svg id="Layer_1" data-name="Layer 1" xmlns="http://www.w3.org/2000/svg" viewBox="0 0 25 25"><defs><style>.cls-1{fill:#fc1921;}</style></defs><path class="cls-1" d="M12.5,0A12.5,12.5,0,1,1,0,12.5,12.52,12.52,0,0,1,12.5,0M7.8,9.48l2.34.48a2.27,2.27,0,0,1,3-2.24,1.65,1.65,0,0,1,1.46,2.09C14.29,10.87,13.35,11,11.42,11v1.81c1.06,0,1.88-.17,2.79.53a2.06,2.06,0,0,1-1.13,3.55c-1.26.15-3,0-3.12-2.29l-2.49.28c0,3.09,3.24,4.25,4.81,4.22,4.12-.05,4.85-2.36,5.07-3.52a3.48,3.48,0,0,0-2.11-3.77c2-.76,2.27-2.64,1.18-4.38-.78-1.26-2.49-1.94-4.85-1.71C9.43,6,8.3,7.29,7.8,9.48"/></svg>