<svg id="Layer_1" data-name="Layer 1" xmlns="http://www.w3.org/2000/svg" viewBox="0 0 25 25"><defs><style>.cls-1{fill:#0c479d;}</style></defs><path class="cls-1" d="M12.5,0A12.5,12.5,0,1,1,0,12.5,12.52,12.52,0,0,1,12.5,0M7.39,8.65a8.44,8.44,0,0,0-.57,6,4.62,4.62,0,0,0,1.33,2.44c3,2.69,7.22,2.46,9.38-1.71l-2.24-1.11a3,3,0,0,1-4.35,2c-1.81-.88-2.19-4-1.66-5.61a3.57,3.57,0,0,1,2.49-2.49,2.75,2.75,0,0,1,3.44,2.17l2.37-.61a7.21,7.21,0,0,0-1.21-2.23c-1.28-1.64-3.9-1.64-4.8-1.56A5.13,5.13,0,0,0,7.39,8.65"/></svg>