<svg id="Layer_1" data-name="Layer 1" xmlns="http://www.w3.org/2000/svg" viewBox="0 0 25 25"><defs><style>.cls-1{fill:#018240;}</style></defs><path class="cls-1" d="M12.5,0A12.5,12.5,0,1,1,0,12.5,12.49,12.49,0,0,1,12.5,0M8.21,16.29a4.82,4.82,0,0,0,5.51,2.84,4.48,4.48,0,0,0,2.92-6.86,4.3,4.3,0,0,0-4.75-1.78,3.41,3.41,0,0,0-1.88,1,3.65,3.65,0,0,1,1.55-3.37c1.35-.74,3-.36,3.23,1.24l2.39-.15C16.79,6.78,14.41,5.49,11.66,6c-3.76.71-5.1,6.73-3.45,10.29M12,12.4a2.48,2.48,0,0,1,1.6,4.67,2.42,2.42,0,0,1-3.23-1.32A2.46,2.46,0,0,1,12,12.4"/></svg>