<svg id="Layer_1" data-name="Layer 1" xmlns="http://www.w3.org/2000/svg" viewBox="0 0 25 25"><defs><style>.cls-1{fill:#018240;}</style></defs><path class="cls-1" d="M12.5,0A12.5,12.5,0,1,1,0,12.5,12.5,12.5,0,0,1,12.5,0M7.76,12.85l1.94.26a2.31,2.31,0,0,1,2-1.39,2.74,2.74,0,0,1,3.18,2.37,2.57,2.57,0,0,1-1.74,2.69c-1.44.46-3.28,0-3.33-1.68l-2.6.17a4.07,4.07,0,0,0,2.42,3.28,5.83,5.83,0,0,0,4.77.05,4.53,4.53,0,0,0,2.32-2.24c1-2.45.27-5.22-2-6.28a5,5,0,0,0-4.38.18l.48-2.09h5.72l.38-2.12H9.05Z"/></svg>