<svg id="Layer_1" data-name="Layer 1" xmlns="http://www.w3.org/2000/svg" viewBox="0 0 50 25"><defs><style>.cls-1{fill:#24b6e5;fill-rule:evenodd;}</style></defs><path class="cls-1" d="M11,8.86a11.41,11.41,0,0,0-1.63-.07H8.22V12H9.46a6.26,6.26,0,0,0,1.8-.17,1.51,1.51,0,0,0,1-1.43,1.44,1.44,0,0,0-.36-1A1.56,1.56,0,0,0,11,8.86Z"/><polygon class="cls-1" points="18.14 13.67 21.21 13.67 19.66 9.51 18.14 13.67"/><path class="cls-1" d="M48,1.23H2a2,2,0,0,0-2,2V21.81a2,2,0,0,0,2,2H48a2,2,0,0,0,2-2V3.19A2,2,0,0,0,48,1.23Zm-34.81,12a3.53,3.53,0,0,1-1.18.53,12.65,12.65,0,0,1-2.35.16H8.22v4.23H6V6.89H9.59a13.65,13.65,0,0,1,2.7.16,3,3,0,0,1,1.62,1.1,3.54,3.54,0,0,1,.65,2.19,3.67,3.67,0,0,1-.38,1.74A3.15,3.15,0,0,1,13.23,13.19Zm9.68,4.92-1-2.55H17.44l-.92,2.55H14.11L18.49,6.89h2.39l4.5,11.22ZM33.54,8.79H30.21v9.32H28V8.79H24.61V6.89h8.93ZM44,18.11H41.72V13.2H37.27v4.91H35V6.89h2.26v4.42h4.45V6.89H44Z"/></svg>